<?xml version="1.0" encoding="UTF-8" standalone="no"?>
<svg
   id="svg"
   version="1.1"
   width="400"
   height="400"
   viewBox="0, 0, 400,400"
   sodipodi:docname="bili logo modify11.svg"
   xml:space="preserve"
   inkscape:version="1.3 (0e150ed6c4, 2023-07-21)"
   inkscape:export-filename="bili logo modify12.png"
   inkscape:export-xdpi="240"
   inkscape:export-ydpi="240"
   xmlns:inkscape="http://www.inkscape.org/namespaces/inkscape"
   xmlns:sodipodi="http://sodipodi.sourceforge.net/DTD/sodipodi-0.dtd"
   xmlns="http://www.w3.org/2000/svg"
   xmlns:svg="http://www.w3.org/2000/svg"><defs
     id="defs1"><inkscape:path-effect
       effect="powerclip"
       id="path-effect11"
       is_visible="true"
       lpeversion="1"
       inverse="true"
       flatten="false"
       hide_clip="false"
       message="若將裁剪轉換為路徑後沒有平面化的效果請在&lt;b&gt;填充與邊框&lt;/b&gt;對話窗中設定使用填充規則奇偶。" /><clipPath
       clipPathUnits="userSpaceOnUse"
       id="clipPath11"><path
         id="path11"
         style="display:none;fill:#ffffff;fill-opacity:1;fill-rule:evenodd;stroke:none;stroke-width:0.960531"
         d="m 312.87891,223.28516 c -0.18544,-0.0332 -0.32578,-0.0349 -0.41602,0.002 -0.17634,0.0718 -3.29477,3.61817 -6.92969,7.87695 -11.1114,13.02015 -26.31189,32.06587 -35.93554,44.82422 -7.76663,-9.60151 -24.12684,-27.8863 -35.63868,-39.66406 -3.24295,-3.31736 -6.02787,-6.06537 -6.18945,-6.10547 -1.32275,-0.32944 -14.87254,9.50543 -20.54101,14.9082 l -1.47071,1.40039 4.54102,5.54297 c 9.56316,11.67472 21.55894,24.92813 31.93359,35.28125 5.97876,5.96567 11.07909,10.86922 11.38477,10.94532 0.56184,0.13992 5.38218,-3.58803 9.99804,-7.51172 l 0.0449,0.0449 c 4.39273,4.27902 17.25389,13.51139 18.2539,13.10351 0.33366,-0.13609 6.03867,-6.4791 12.73438,-14.16211 11.61877,-13.3333 25.10192,-30.18998 35.89258,-44.87109 l 5.125,-6.9707 -1.53907,-1.32813 c -5.55895,-4.7999 -18.46657,-12.81794 -21.24804,-13.3164 z" /><path
         id="lpe_path-effect11"
         style="display:inline;fill:#ffffff;fill-opacity:1;fill-rule:evenodd;stroke:none;stroke-width:0.960531"
         class="powerclip"
         d="M 28.237374,28.987189 H 372.0091 V 372.91333 H 28.237374 Z M 312.87891,223.28516 c -0.18544,-0.0332 -0.32578,-0.0349 -0.41602,0.002 -0.17634,0.0718 -3.29477,3.61817 -6.92969,7.87695 -11.1114,13.02015 -26.31189,32.06587 -35.93554,44.82422 -7.76663,-9.60151 -24.12684,-27.8863 -35.63868,-39.66406 -3.24295,-3.31736 -6.02787,-6.06537 -6.18945,-6.10547 -1.32275,-0.32944 -14.87254,9.50543 -20.54101,14.9082 l -1.47071,1.40039 4.54102,5.54297 c 9.56316,11.67472 21.55894,24.92813 31.93359,35.28125 5.97876,5.96567 11.07909,10.86922 11.38477,10.94532 0.56184,0.13992 5.38218,-3.58803 9.99804,-7.51172 l 0.0449,0.0449 c 4.39273,4.27902 17.25389,13.51139 18.2539,13.10351 0.33366,-0.13609 6.03867,-6.4791 12.73438,-14.16211 11.61877,-13.3333 25.10192,-30.18998 35.89258,-44.87109 l 5.125,-6.9707 -1.53907,-1.32813 c -5.55895,-4.7999 -18.46657,-12.81794 -21.24804,-13.3164 z" /></clipPath><clipPath
       clipPathUnits="userSpaceOnUse"
       id="clipPath11-6"><path
         id="path11-3"
         style="display:none;fill:#ffffff;fill-opacity:1;fill-rule:evenodd;stroke:none;stroke-width:0.960531"
         d="m 312.87891,223.28516 c -0.18544,-0.0332 -0.32578,-0.0349 -0.41602,0.002 -0.17634,0.0718 -3.29477,3.61817 -6.92969,7.87695 -11.1114,13.02015 -26.31189,32.06587 -35.93554,44.82422 -7.76663,-9.60151 -24.12684,-27.8863 -35.63868,-39.66406 -3.24295,-3.31736 -6.02787,-6.06537 -6.18945,-6.10547 -1.32275,-0.32944 -14.87254,9.50543 -20.54101,14.9082 l -1.47071,1.40039 4.54102,5.54297 c 9.56316,11.67472 21.55894,24.92813 31.93359,35.28125 5.97876,5.96567 11.07909,10.86922 11.38477,10.94532 0.56184,0.13992 5.38218,-3.58803 9.99804,-7.51172 l 0.0449,0.0449 c 4.39273,4.27902 17.25389,13.51139 18.2539,13.10351 0.33366,-0.13609 6.03867,-6.4791 12.73438,-14.16211 11.61877,-13.3333 25.10192,-30.18998 35.89258,-44.87109 l 5.125,-6.9707 -1.53907,-1.32813 c -5.55895,-4.7999 -18.46657,-12.81794 -21.24804,-13.3164 z" /><path
         id="lpe_path-effect11-8"
         style="display:inline;fill:#ffffff;fill-opacity:1;fill-rule:evenodd;stroke:none;stroke-width:0.960531"
         class="powerclip"
         d="M 28.237374,28.987189 H 372.0091 V 372.91333 H 28.237374 Z M 312.87891,223.28516 c -0.18544,-0.0332 -0.32578,-0.0349 -0.41602,0.002 -0.17634,0.0718 -3.29477,3.61817 -6.92969,7.87695 -11.1114,13.02015 -26.31189,32.06587 -35.93554,44.82422 -7.76663,-9.60151 -24.12684,-27.8863 -35.63868,-39.66406 -3.24295,-3.31736 -6.02787,-6.06537 -6.18945,-6.10547 -1.32275,-0.32944 -14.87254,9.50543 -20.54101,14.9082 l -1.47071,1.40039 4.54102,5.54297 c 9.56316,11.67472 21.55894,24.92813 31.93359,35.28125 5.97876,5.96567 11.07909,10.86922 11.38477,10.94532 0.56184,0.13992 5.38218,-3.58803 9.99804,-7.51172 l 0.0449,0.0449 c 4.39273,4.27902 17.25389,13.51139 18.2539,13.10351 0.33366,-0.13609 6.03867,-6.4791 12.73438,-14.16211 11.61877,-13.3333 25.10192,-30.18998 35.89258,-44.87109 l 5.125,-6.9707 -1.53907,-1.32813 c -5.55895,-4.7999 -18.46657,-12.81794 -21.24804,-13.3164 z" /></clipPath><inkscape:path-effect
       effect="powerclip"
       id="path-effect11-7"
       is_visible="true"
       lpeversion="1"
       inverse="true"
       flatten="false"
       hide_clip="false"
       message="若將裁剪轉換為路徑後沒有平面化的效果請在&lt;b&gt;填充與邊框&lt;/b&gt;對話窗中設定使用填充規則奇偶。" /><clipPath
       clipPathUnits="userSpaceOnUse"
       id="clipath_lpe_path-effect11-7"><path
         id="path12"
         style="display:block;fill:#ffffff;fill-opacity:1;fill-rule:evenodd;stroke:none;stroke-width:0.960531"
         d="m 312.87891,223.28516 c -0.18544,-0.0332 -0.32578,-0.0349 -0.41602,0.002 -0.17634,0.0718 -3.29477,3.61817 -6.92969,7.87695 -11.1114,13.02015 -26.31189,32.06587 -35.93554,44.82422 -7.76663,-9.60151 -24.12684,-27.8863 -35.63868,-39.66406 -3.24295,-3.31736 -6.02787,-6.06537 -6.18945,-6.10547 -1.32275,-0.32944 -14.87254,9.50543 -20.54101,14.9082 l -1.47071,1.40039 4.54102,5.54297 c 9.56316,11.67472 21.55894,24.92813 31.93359,35.28125 5.97876,5.96567 11.07909,10.86922 11.38477,10.94532 0.56184,0.13992 5.38218,-3.58803 9.99804,-7.51172 l 0.0449,0.0449 c 4.39273,4.27902 17.25389,13.51139 18.2539,13.10351 0.33366,-0.13609 6.03867,-6.4791 12.73438,-14.16211 11.61877,-13.3333 25.10192,-30.18998 35.89258,-44.87109 l 5.125,-6.9707 -1.53907,-1.32813 c -5.55895,-4.7999 -18.46657,-12.81794 -21.24804,-13.3164 z" /></clipPath></defs><sodipodi:namedview
     id="namedview1"
     pagecolor="#000000"
     bordercolor="#000000"
     borderopacity="0"
     inkscape:showpageshadow="2"
     inkscape:pageopacity="0.0"
     inkscape:pagecheckerboard="0"
     inkscape:deskcolor="#d1d1d1"
     inkscape:zoom="1"
     inkscape:cx="132"
     inkscape:cy="218"
     inkscape:window-width="1440"
     inkscape:window-height="740"
     inkscape:window-x="-6"
     inkscape:window-y="-6"
     inkscape:window-maximized="1"
     inkscape:current-layer="svg" /><g
     id="svgg-9"
     transform="translate(-0.062125,-0.06475184)"><path
       id="path1"
       d="M 50.391,0.573 C 28.492,4.28 9.86,19.913 3.12,40.234 2.586,41.846 2.061,43.252 1.953,43.359 1.846,43.467 1.729,43.818 1.694,44.141 1.659,44.463 1.261,46.836 0.81,49.414 l -0.82,4.688 0.109,148.437 0.11,148.438 0.887,3.711 c 0.489,2.041 0.951,3.977 1.028,4.303 0.077,0.326 0.676,1.996 1.331,3.711 0.654,1.715 1.244,3.382 1.309,3.704 0.065,0.323 0.228,0.674 0.361,0.782 0.134,0.107 0.775,1.253 1.426,2.546 0.65,1.294 1.991,3.558 2.98,5.033 0.988,1.474 1.797,2.757 1.797,2.85 0,0.093 0.614,0.817 1.364,1.608 0.75,0.792 1.365,1.551 1.367,1.687 0.004,0.315 6.383,6.542 8.207,8.012 0.752,0.606 1.455,1.214 1.562,1.351 0.108,0.136 1.118,0.813 2.246,1.504 1.128,0.691 2.051,1.417 2.051,1.614 0,0.196 0.132,0.314 0.293,0.261 0.161,-0.053 1.787,0.689 3.613,1.648 3.378,1.774 5.431,2.628 9.508,3.955 2.225,0.725 6.057,0.743 158.525,0.743 h 156.244 l 2.998,-1.002 c 20.525,-6.862 36.277,-25.242 39.935,-46.595 1.191,-6.955 1.191,-295.898 0,-302.852 C 395.141,25.615 377.143,6.899 352.615,1.065 L 349.023,0.211 201.172,0.144 C 83.214,0.09 52.728,0.177 50.391,0.573"
       stroke="none"
       fill="#fcfcfc"
       fill-rule="evenodd"
       sodipodi:nodetypes="cccccccccscccccsccscsssscscccccccc" /><path
       id="path2"
       d=""
       stroke="none"
       fill="#f48cac"
       fill-rule="evenodd" /></g><g
     id="svgg"
     clip-path="url(#clipPath11)"
     inkscape:path-effect="#path-effect11"><path
       id="path5"
       d="m 188.086,34.414 c -26.351,1.957 -52.604,10.416 -75.137,24.209 l -5.214,3.192 2.909,1.265 c 3.77,1.639 16.63,8.228 17.79,9.115 l 0.895,0.684 -5.835,16.783 -5.835,16.783 3.573,0.276 c 1.965,0.151 9.461,0.558 16.659,0.903 7.197,0.345 17.744,0.968 23.437,1.383 5.693,0.416 10.591,0.757 10.884,0.757 0.66,0.002 0.399,17.852 -0.302,20.705 -0.238,0.967 -0.522,2.153 -0.632,2.636 l -0.199,0.879 -21.575,-0.018 c -11.866,-0.01 -26.057,-0.168 -31.535,-0.35 -5.479,-0.182 -10.016,-0.28 -10.082,-0.218 -0.067,0.062 -3.433,9.052 -7.48,19.978 -4.047,10.927 -8.432,22.663 -9.744,26.081 -1.312,3.419 -2.306,6.296 -2.209,6.393 0.218,0.218 28.333,1.409 28.502,1.208 0.066,-0.079 0.338,-5.945 0.605,-13.035 0.267,-7.089 0.6,-14.121 0.739,-15.625 l 0.255,-2.734 2.343,-0.514 c 3.122,-0.685 14.439,-0.76 18.033,-0.12 l 2.797,0.498 0.23,3.584 c 0.126,1.971 0.426,9.208 0.665,16.083 0.24,6.875 0.515,12.585 0.612,12.689 0.097,0.104 6.87,0.445 15.051,0.758 l 14.875,0.569 -0.254,5.598 c -0.247,5.434 -0.982,11.844 -1.838,16.026 l -0.419,2.046 -13.548,0.102 -13.547,0.103 -0.102,19.689 -0.101,19.69 15.022,-0.278 15.021,-0.278 0.392,1.487 c 1.596,6.061 1.329,18.493 -0.436,20.258 -0.372,0.372 -11.373,1.747 -20.657,2.581 l -9.611,0.863 -0.267,11.354 c -0.331,14.123 -0.929,30.757 -1.239,34.476 l -0.233,2.811 -2.215,0.482 c -3.146,0.686 -15.03,0.623 -17.059,-0.089 l -1.562,-0.549 -0.465,-4.686 c -0.667,-6.733 -1.622,-21.234 -1.877,-28.514 -0.12,-3.438 -0.316,-7.838 -0.434,-9.779 l -0.214,-3.529 -3.193,0.279 c -12.292,1.074 -36.508,2.489 -49.872,2.914 -11.117,0.354 -10.443,-0.296 -6.44,6.206 48.489,78.756 152.281,103.137 230.544,54.155 8.08,-5.057 21.223,-14.966 23.423,-17.66 0.396,-0.484 -5.061,-0.54 -40.971,-0.415 -48.176,0.166 -62.469,-0.21 -81.427,-2.145 -7.393,-0.755 -7.032,-0.601 -7.793,-3.303 -1.088,-3.865 -1.131,-19.816 -0.055,-20.892 0.072,-0.072 15.944,-0.339 35.272,-0.593 19.329,-0.255 35.185,-0.496 35.238,-0.537 0.052,-0.041 0.27,-8.938 0.483,-19.771 0.214,-10.832 0.559,-22.684 0.767,-26.336 0.207,-3.653 2.23499,-77.13915 2.23499,-77.13915 0,0 4.81639,-2.11174 14.20222,-2.61718 8.25098,-0.44433 13.70222,-0.0817 13.70222,-0.0817 0.27571,6.85831 0.39594,27.02484 0.11249,45.35377 -0.5286,34.18148 -1.6839,73.79008 -1.79592,76.53421 l -0.169,4.16 6.668,0.219 c 3.667,0.121 13.699,0.41 22.293,0.644 8.594,0.234 17.664,0.529 20.156,0.657 l 4.531,0.231 1.843,-2.583 c 40.372,-56.576 39.559,-136.477 -1.967,-193.505 -8.24,-11.317 -30.376,-34.1 -33.13,-34.1 -0.08,0 -1.329,1.978 -2.776,4.395 -11.513,19.24 -34.704,49.74 -70.466,92.675 -9.153,10.99 -23.487,27.994 -24.641,29.231 -1.204,1.292 -12.561,-5.156 -21.431,-12.169 l -0.929,-0.734 10.865,-13.819 c 21.627,-27.507 48.44,-61.098 66.702,-83.563 3.755,-4.62 6.772,-8.457 6.704,-8.529 -0.33,-0.351 -36.481,-3.471 -63.273,-5.461 l -14.453,-1.074 0.041,-4.48 c 0.056,-6.015 2.538,-17.504 4.353,-20.14 0.674,-0.98 37.572,0.844 64.48,3.187 6.299,0.548 11.63,0.938 11.847,0.865 0.594,-0.197 -8.447,-3.886 -15.096,-6.158 -20.967,-7.165 -44.222,-10.181 -66.016,-8.562 m -87.125,32.289 c -7.557,5.645 -11.787,9.315 -18.768,16.283 -7.723,7.709 -18.707,20.864 -18.006,21.566 0.202,0.202 23.393,0.994 23.536,0.803 0.034,-0.045 2.131,-4.828 4.659,-10.628 4.156,-9.532 13.689,-30.818 14.128,-31.543 0.509,-0.844 -0.941,0.076 -5.549,3.519 m 196.769,54.244 c 18.279,10.463 46.53,28.367 53.833,34.115 l 0.976,0.769 -1.739,3.421 c -2.776,5.46 -11.777,18.482 -12.775,18.482 -0.333,0 -7.09,-3.614 -15.084,-8.068 -13.872,-7.73 -30.336,-17.944 -43.828,-27.19 l -6.407,-4.39 1.017,-1.758 c 3.921,-6.78 14.313,-19.922 15.754,-19.922 0.176,0 3.89,2.044 8.253,4.541 M 46.567,135.593 c -17.768,41.945 -17.773,88.81 -0.014,130.735 2.533,5.979 2.9,6.493 2.266,3.169 -0.222,-1.163 -0.513,-4.257 -0.647,-6.877 l -0.243,-4.763 0.938,-0.199 c 2.508,-0.531 39.415,-3.11 53.672,-3.751 5.156,-0.231 10.501,-0.519 11.876,-0.639 l 2.502,-0.218 -0.256,-6.47 c -0.14,-3.559 -0.255,-12.743 -0.255,-20.41 v -13.94 l -8.691,-0.27 c -26.063,-0.808 -57.816,-4.119 -59.947,-6.249 -0.554,-0.554 12.6,-34.971 23.672,-61.934 2.597,-6.323 4.668,-11.549 4.604,-11.613 -0.065,-0.065 -4.852,-0.473 -10.639,-0.907 -5.787,-0.434 -11.858,-0.9 -13.491,-1.035 l -2.968,-0.246 -2.379,5.617"
       stroke="none"
       fill="#e4044c"
       fill-rule="evenodd"
       sodipodi:nodetypes="ccccccccccccccccscccscscccccccsccccccccccccsccccccccccccsccsccccscccccscscccsccccscccccscccccccccccccccccccccsccccscccccccccccsccccssccc"
       style="display:inline"
       inkscape:original-d="m 188.086,34.414 c -26.351,1.957 -52.604,10.416 -75.137,24.209 l -5.214,3.192 2.909,1.265 c 3.77,1.639 16.63,8.228 17.79,9.115 l 0.895,0.684 -5.835,16.783 -5.835,16.783 3.573,0.276 c 1.965,0.151 9.461,0.558 16.659,0.903 7.197,0.345 17.744,0.968 23.437,1.383 5.693,0.416 10.591,0.757 10.884,0.757 0.66,0.002 0.399,17.852 -0.302,20.705 -0.238,0.967 -0.522,2.153 -0.632,2.636 l -0.199,0.879 -21.575,-0.018 c -11.866,-0.01 -26.057,-0.168 -31.535,-0.35 -5.479,-0.182 -10.016,-0.28 -10.082,-0.218 -0.067,0.062 -3.433,9.052 -7.48,19.978 -4.047,10.927 -8.432,22.663 -9.744,26.081 -1.312,3.419 -2.306,6.296 -2.209,6.393 0.218,0.218 28.333,1.409 28.502,1.208 0.066,-0.079 0.338,-5.945 0.605,-13.035 0.267,-7.089 0.6,-14.121 0.739,-15.625 l 0.255,-2.734 2.343,-0.514 c 3.122,-0.685 14.439,-0.76 18.033,-0.12 l 2.797,0.498 0.23,3.584 c 0.126,1.971 0.426,9.208 0.665,16.083 0.24,6.875 0.515,12.585 0.612,12.689 0.097,0.104 6.87,0.445 15.051,0.758 l 14.875,0.569 -0.254,5.598 c -0.247,5.434 -0.982,11.844 -1.838,16.026 l -0.419,2.046 -13.548,0.102 -13.547,0.103 -0.102,19.689 -0.101,19.69 15.022,-0.278 15.021,-0.278 0.392,1.487 c 1.596,6.061 1.329,18.493 -0.436,20.258 -0.372,0.372 -11.373,1.747 -20.657,2.581 l -9.611,0.863 -0.267,11.354 c -0.331,14.123 -0.929,30.757 -1.239,34.476 l -0.233,2.811 -2.215,0.482 c -3.146,0.686 -15.03,0.623 -17.059,-0.089 l -1.562,-0.549 -0.465,-4.686 c -0.667,-6.733 -1.622,-21.234 -1.877,-28.514 -0.12,-3.438 -0.316,-7.838 -0.434,-9.779 l -0.214,-3.529 -3.193,0.279 c -12.292,1.074 -36.508,2.489 -49.872,2.914 -11.117,0.354 -10.443,-0.296 -6.44,6.206 48.489,78.756 152.281,103.137 230.544,54.155 8.08,-5.057 21.223,-14.966 23.423,-17.66 0.396,-0.484 -5.061,-0.54 -40.971,-0.415 -48.176,0.166 -62.469,-0.21 -81.427,-2.145 -7.393,-0.755 -7.032,-0.601 -7.793,-3.303 -1.088,-3.865 -1.131,-19.816 -0.055,-20.892 0.072,-0.072 15.944,-0.339 35.272,-0.593 19.329,-0.255 35.185,-0.496 35.238,-0.537 0.052,-0.041 0.27,-8.938 0.483,-19.771 0.214,-10.832 0.559,-22.684 0.767,-26.336 0.207,-3.653 2.23499,-77.13915 2.23499,-77.13915 0,0 4.81639,-2.11174 14.20222,-2.61718 8.25098,-0.44433 13.70222,-0.0817 13.70222,-0.0817 0.27571,6.85831 0.39594,27.02484 0.11249,45.35377 -0.5286,34.18148 -1.6839,73.79008 -1.79592,76.53421 l -0.169,4.16 6.668,0.219 c 3.667,0.121 13.699,0.41 22.293,0.644 8.594,0.234 17.664,0.529 20.156,0.657 l 4.531,0.231 1.843,-2.583 c 40.372,-56.576 39.559,-136.477 -1.967,-193.505 -8.24,-11.317 -30.376,-34.1 -33.13,-34.1 -0.08,0 -1.329,1.978 -2.776,4.395 -11.513,19.24 -34.704,49.74 -70.466,92.675 -9.153,10.99 -23.487,27.994 -24.641,29.231 -1.204,1.292 -12.561,-5.156 -21.431,-12.169 l -0.929,-0.734 10.865,-13.819 c 21.627,-27.507 48.44,-61.098 66.702,-83.563 3.755,-4.62 6.772,-8.457 6.704,-8.529 -0.33,-0.351 -36.481,-3.471 -63.273,-5.461 l -14.453,-1.074 0.041,-4.48 c 0.056,-6.015 2.538,-17.504 4.353,-20.14 0.674,-0.98 37.572,0.844 64.48,3.187 6.299,0.548 11.63,0.938 11.847,0.865 0.594,-0.197 -8.447,-3.886 -15.096,-6.158 -20.967,-7.165 -44.222,-10.181 -66.016,-8.562 m -87.125,32.289 c -7.557,5.645 -11.787,9.315 -18.768,16.283 -7.723,7.709 -18.707,20.864 -18.006,21.566 0.202,0.202 23.393,0.994 23.536,0.803 0.034,-0.045 2.131,-4.828 4.659,-10.628 4.156,-9.532 13.689,-30.818 14.128,-31.543 0.509,-0.844 -0.941,0.076 -5.549,3.519 m 196.769,54.244 c 18.279,10.463 46.53,28.367 53.833,34.115 l 0.976,0.769 -1.739,3.421 c -2.776,5.46 -11.777,18.482 -12.775,18.482 -0.333,0 -7.09,-3.614 -15.084,-8.068 -13.872,-7.73 -30.336,-17.944 -43.828,-27.19 l -6.407,-4.39 1.017,-1.758 c 3.921,-6.78 14.313,-19.922 15.754,-19.922 0.176,0 3.89,2.044 8.253,4.541 M 46.567,135.593 c -17.768,41.945 -17.773,88.81 -0.014,130.735 2.533,5.979 2.9,6.493 2.266,3.169 -0.222,-1.163 -0.513,-4.257 -0.647,-6.877 l -0.243,-4.763 0.938,-0.199 c 2.508,-0.531 39.415,-3.11 53.672,-3.751 5.156,-0.231 10.501,-0.519 11.876,-0.639 l 2.502,-0.218 -0.256,-6.47 c -0.14,-3.559 -0.255,-12.743 -0.255,-20.41 v -13.94 l -8.691,-0.27 c -26.063,-0.808 -57.816,-4.119 -59.947,-6.249 -0.554,-0.554 12.6,-34.971 23.672,-61.934 2.597,-6.323 4.668,-11.549 4.604,-11.613 -0.065,-0.065 -4.852,-0.473 -10.639,-0.907 -5.787,-0.434 -11.858,-0.9 -13.491,-1.035 l -2.968,-0.246 -2.379,5.617" /></g></svg>
